<svg width="9" height="9" viewBox="0 0 9 9" fill="none" xmlns="http://www.w3.org/2000/svg">
<path d="M4.05445 4.82011L0.184716 1.04856C-0.061573 0.808646 -0.061573 0.419663 0.184716 0.179864C0.430786 -0.0599547 0.829888 -0.0599547 1.07594 0.179864L4.50006 3.5171L7.92407 0.179961C8.17024 -0.0598577 8.5693 -0.0598577 8.81537 0.179961C9.06154 0.41978 9.06154 0.808743 8.81537 1.04866L4.94558 4.8202C4.82248 4.94011 4.66132 5 4.50008 5C4.33877 5 4.17749 4.94 4.05445 4.82011Z" fill="#B1040E"/>
<path d="M4.94555 4.17989L8.81528 7.95144C9.06157 8.19135 9.06157 8.58034 8.81528 8.82014C8.56921 9.05995 8.17011 9.05995 7.92406 8.82014L4.49994 5.4829L1.07593 8.82004C0.829759 9.05986 0.430697 9.05986 0.184627 8.82004C-0.0615424 8.58022 -0.0615424 8.19126 0.184627 7.95134L4.05442 4.1798C4.17752 4.05989 4.33868 4 4.49992 4C4.66123 4 4.82251 4.06 4.94555 4.17989Z" fill="#B1040E"/>
</svg>
