<svg width="16" height="13" viewBox="0 0 16 13" fill="none" xmlns="http://www.w3.org/2000/svg">
<path d="M10.666 0.333984H5.33267C2.75974 0.333984 0.666016 2.42771 0.666016 5.00064C0.666016 7.34765 2.40757 9.29556 4.666 9.61978V11.6673C4.666 11.9368 4.82809 12.1803 5.07747 12.2831C5.32338 12.3858 5.61182 12.3307 5.80404 12.1386L8.27537 9.66729H10.666C13.2389 9.66729 15.3771 7.57356 15.3771 5.00064C15.3771 2.42771 13.2389 0.333984 10.666 0.333984ZM5.33267 5.66721C4.9644 5.66721 4.666 5.36873 4.666 5.00055C4.666 4.63237 4.9644 4.33388 5.33267 4.33388C5.70084 4.33388 5.99933 4.63237 5.99933 5.00055C5.99933 5.36873 5.70084 5.66721 5.33267 5.66721ZM7.99933 5.66721C7.63106 5.66721 7.33266 5.36873 7.33266 5.00055C7.33266 4.63237 7.63106 4.33388 7.99933 4.33388C8.3675 4.33388 8.66599 4.63237 8.66599 5.00055C8.66599 5.36873 8.3675 5.66721 7.99933 5.66721ZM10.666 5.66721C10.2977 5.66721 9.99932 5.36873 9.99932 5.00055C9.99932 4.63237 10.2977 4.33388 10.666 4.33388C11.0342 4.33388 11.3326 4.63237 11.3326 5.00055C11.3326 5.36873 11.0342 5.66721 10.666 5.66721Z" fill="#001857"/>
</svg>
