<svg width="35" height="40" viewBox="0 0 35 40" fill="none" xmlns="http://www.w3.org/2000/svg">
<path d="M17.5 0L35 10.0014V29.9986L17.5 40L0 29.9986V9.9958L17.5 0Z" fill="white"/>
<path d="M19.6284 10.6758H15.3675C14.2602 10.6758 13.3594 11.5395 13.3594 12.6012V12.9439H14.5348V12.6012C14.5348 12.161 14.9083 11.8028 15.3675 11.8028H19.6284C20.0875 11.8028 20.461 12.161 20.461 12.6012V12.9439H21.6365V12.6012C21.6365 11.5395 20.7356 10.6758 19.6284 10.6758V10.6758Z" fill="#941605"/>
<path d="M18.0967 20.2937V18.5938H16.9115V20.2937C16.9115 20.6049 16.6483 20.8572 16.3237 20.8572H14.5508V21.9937H16.3237C16.6483 21.9937 16.9115 22.246 16.9115 22.5572V24.2571H18.0967V22.5572C18.0967 22.246 18.3598 21.9937 18.6844 21.9937H20.4574V20.8572H18.6844C18.3598 20.8572 18.0967 20.605 18.0967 20.2937Z" fill="#941605"/>
<path d="M7.47266 16.9355V25.9144C7.47266 27.301 8.50568 28.4604 9.87248 28.7229V14.127C8.50568 14.3895 7.47266 15.5489 7.47266 16.9355Z" fill="#941605"/>
<path d="M25.125 14.127V28.7229C26.4918 28.4604 27.5248 27.301 27.5248 25.9143V16.9355C27.5248 15.5489 26.4918 14.3895 25.125 14.127V14.127Z" fill="#941605"/>
<path d="M23.9651 14.0703H11.0547V28.7782H23.9651V14.0703ZM21.6386 22.5559C21.6386 22.8671 21.3755 23.1195 21.0509 23.1195H19.2779V24.8194C19.2779 25.1306 19.0148 25.3829 18.6902 25.3829H16.3295C16.005 25.3829 15.7418 25.1306 15.7418 24.8194V23.1195H13.9688C13.6443 23.1195 13.3811 22.8671 13.3811 22.5559V20.2925C13.3811 19.9813 13.6443 19.7289 13.9688 19.7289H15.7418V18.029C15.7418 17.7178 16.005 17.4655 16.3295 17.4655H18.6902C19.0148 17.4655 19.2779 17.7178 19.2779 18.029V19.7289H21.0509C21.3755 19.7289 21.6386 19.9813 21.6386 20.2925V22.5559Z" fill="#941605"/>
</svg>
