<svg width="48" height="48" viewBox="0 0 48 48" fill="none" xmlns="http://www.w3.org/2000/svg">
<g clip-path="url(#clip0_12_2547)">
<path d="M23.9998 0C18.8278 0 14.6211 4.20784 14.6211 9.37989V14.2394C14.6211 19.4118 18.8278 23.6196 23.9998 23.6196C29.1723 23.6196 33.3786 19.4118 33.3786 14.2394V9.37989C33.3787 4.20784 29.1723 0 23.9998 0Z" fill="white"/>
<path d="M44.6844 35.8435C41.6812 30.7255 36.8808 26.9313 31.1677 25.1595C31.0352 25.1184 30.892 25.1534 30.7933 25.2509C28.1357 27.8713 24.8333 29.9157 24.0077 30.4095C23.1264 29.8462 19.4143 27.4266 17.2075 25.2509C17.1092 25.1534 16.9648 25.1184 16.8331 25.1595C11.1192 26.9317 6.31926 30.7259 3.31718 35.8438C3.24844 35.961 3.24844 36.1065 3.31718 36.2236C7.58031 43.4881 15.5056 48.0008 24.0004 48.0008C32.4956 48.0008 40.4213 43.4881 44.6844 36.2236C44.7535 36.1061 44.7535 35.9606 44.6844 35.8435ZM36.7564 38.6413C36.7564 38.8482 36.5594 39.0064 36.3528 39.0064H33.8127C33.6057 39.0064 33.3799 39.1842 33.3799 39.3916V42.0185C33.3799 42.2251 33.2693 42.3829 33.0623 42.3829H30.781C30.574 42.3829 30.379 42.2251 30.379 42.0185V39.3916C30.3782 39.1846 30.2369 39.0064 30.0299 39.0064H27.3803C27.1734 39.0064 27.0021 38.8478 27.0021 38.6413V36.3795C27.0021 36.1725 27.1734 36.0055 27.3803 36.0055H30.0299C30.2369 36.0055 30.3782 35.8365 30.3782 35.6292V32.9992C30.3782 32.7922 30.5733 32.629 30.7803 32.629H33.037C33.2436 32.629 33.3795 32.7922 33.3795 32.9992V35.6369C33.3795 35.8442 33.58 36.0051 33.7873 36.0051H36.3528C36.5594 36.0051 36.7564 36.1802 36.7564 36.3872V38.6413Z" fill="white"/>
</g>
<defs>
<clipPath id="clip0_12_2547">
<rect width="48" height="48" fill="white"/>
</clipPath>
</defs>
</svg>
