<svg width="35" height="36" viewBox="0 0 35 36" fill="none" xmlns="http://www.w3.org/2000/svg">
<path d="M29.9225 0.667969H5.41211C2.61226 0.667969 0.333984 2.94625 0.333984 5.74609V30.2565C0.333984 33.0564 2.61226 35.3346 5.41211 35.3346H29.9225C32.7224 35.3346 35.0007 33.0564 35.0007 30.2565V5.74609C35.0007 2.94625 32.7224 0.667969 29.9225 0.667969ZM17.735 27.0742C12.6947 27.0742 8.5944 22.9739 8.5944 17.9336C8.5944 12.8933 12.6947 8.79297 17.735 8.79297C22.7753 8.79297 26.8757 12.8933 26.8757 17.9336C26.8757 22.9739 22.7753 27.0742 17.735 27.0742ZM27.8913 10.8242C26.2113 10.8242 24.8444 9.45736 24.8444 7.77734C24.8444 6.09733 26.2113 4.73047 27.8913 4.73047C29.5713 4.73047 30.9382 6.09733 30.9382 7.77734C30.9382 9.45736 29.5713 10.8242 27.8913 10.8242Z" fill="white"/>
</svg>
