<svg width="23" height="22" viewBox="0 0 23 22" fill="none" xmlns="http://www.w3.org/2000/svg">
<path d="M19.2064 0H4.12305C2.40007 0 0.998047 1.40202 0.998047 3.125V18.2083C0.998047 19.9313 2.40007 21.3333 4.12305 21.3333H19.2064C20.9294 21.3333 22.3314 19.9313 22.3314 18.2083V3.125C22.3314 1.40202 20.9294 0 19.2064 0ZM11.7064 16.25C8.60466 16.25 6.08138 13.7267 6.08138 10.625C6.08138 7.52327 8.60466 5 11.7064 5C14.8081 5 17.3314 7.52327 17.3314 10.625C17.3314 13.7267 14.8081 16.25 11.7064 16.25ZM17.9564 6.25C16.9225 6.25 16.0814 5.40885 16.0814 4.375C16.0814 3.34115 16.9225 2.5 17.9564 2.5C18.9902 2.5 19.8314 3.34115 19.8314 4.375C19.8314 5.40885 18.9902 6.25 17.9564 6.25Z" fill="#001857"/>
</svg>
