<svg width="136" height="136" viewBox="0 0 136 136" fill="none" xmlns="http://www.w3.org/2000/svg">
<g clip-path="url(#clip0_27_2554)">
<path d="M19.5742 98.7815L26.7885 111.286L64.2788 89.6434L57.0645 77.1387L19.5742 98.7815ZM32.7138 102.302L30.6337 103.504C29.4829 104.169 28.0117 103.774 27.3476 102.623C26.6836 101.472 27.0781 100.001 28.229 99.337L30.3091 98.1346C31.4599 97.4706 32.9311 97.8652 33.5952 99.016C34.2592 100.167 33.8646 101.638 32.7138 102.302ZM55.6216 89.0759L41.0463 97.4926C39.8955 98.1566 38.4243 97.762 37.7602 96.6112C37.0962 95.4604 37.4908 93.9892 38.6416 93.3251L53.2168 84.9085C54.3677 84.2444 55.8389 84.639 56.503 85.7898C57.167 86.9406 56.7724 88.4119 55.6216 89.0759Z" fill="#B1040E"/>
<path d="M106.148 84.834H110.958V89.6435H106.148V84.834Z" fill="#B1040E"/>
<path d="M31.6009 19.9061V4.06836L8.54883 27.1204H24.3866C28.3709 27.1204 31.6009 23.8905 31.6009 19.9061Z" fill="#B1040E"/>
<path d="M91.9307 50.8567C90.9684 56.7516 93.2089 62.7141 97.8151 66.5165C100.009 68.2739 101.301 70.9204 101.338 73.7308V80.0241H115.767V73.7188C115.804 70.9147 117.093 68.2742 119.282 66.5214C123.056 63.3978 125.279 58.784 125.372 53.8865C125.464 48.9889 123.416 44.2946 119.763 41.0309C118.983 40.3264 118.141 39.6946 117.246 39.1431L117.21 39.1239C114.604 37.5535 111.617 36.7283 108.574 36.7384C107.922 36.7387 107.27 36.7748 106.621 36.8466C99.161 37.7455 93.1822 43.4474 91.9307 50.8567Z" fill="#B1040E"/>
<path d="M115.77 17.5023C115.758 14.456 113.833 11.7459 110.961 10.7305V32.0823C112.601 32.2722 114.215 32.6473 115.77 33.2006V17.5023Z" fill="#B1040E"/>
<path d="M94.127 108.881H122.986V116.095H94.127V108.881Z" fill="#B1040E"/>
<path d="M105.706 120.906H94.1246C91.4684 120.906 89.3151 118.753 89.3151 116.097V108.882C85.3308 108.882 82.1008 105.652 82.1008 101.668V96.8585C82.1008 92.8741 85.3308 89.6442 89.3151 89.6442H101.339V84.8347C98.6827 84.8347 96.5294 82.6814 96.5294 80.0251V73.7198C96.484 72.3462 95.8313 71.0636 94.7475 70.2185C88.831 65.3406 85.9489 57.6885 87.1773 50.1195C88.7844 40.5745 96.4836 33.2267 106.093 32.067H106.148V7.88226C106.148 3.89792 102.919 0.667969 98.9342 0.667969H36.4104V19.9061C36.4024 26.5433 31.0238 31.9219 24.3865 31.9299H5.14844V118.501C5.14844 122.486 8.37838 125.716 12.3627 125.716H98.9342C101.98 125.703 104.691 123.778 105.706 120.906ZM94.1246 5.47749H98.9342C100.262 5.47749 101.339 6.55414 101.339 7.88226C101.339 9.21037 100.262 10.287 98.9342 10.287H94.1246C92.7965 10.287 91.7199 9.21037 91.7199 7.88226C91.7199 6.55414 92.7965 5.47749 94.1246 5.47749ZM70.077 5.47749H84.5056C85.8337 5.47749 86.9104 6.55414 86.9104 7.88226C86.9104 9.21037 85.8337 10.287 84.5056 10.287H70.077C68.7489 10.287 67.6723 9.21037 67.6723 7.88226C67.6723 6.55414 68.7489 5.47749 70.077 5.47749ZM34.0056 39.1442H79.6961C81.0242 39.1442 82.1008 40.2208 82.1008 41.5489C82.1008 42.877 81.0242 43.9537 79.6961 43.9537H34.0056C32.6775 43.9537 31.6008 42.877 31.6008 41.5489C31.6008 40.2208 32.6775 39.1442 34.0056 39.1442ZM82.1008 51.168C82.1008 52.4961 81.0242 53.5727 79.6961 53.5727H70.077C68.7489 53.5727 67.6723 52.4961 67.6723 51.168C67.6723 49.8399 68.7489 48.7632 70.077 48.7632H79.6961C81.0242 48.7632 82.1008 49.8399 82.1008 51.168ZM62.8627 51.168C62.8627 52.4961 61.7861 53.5727 60.458 53.5727H48.4342C47.106 53.5727 46.0294 52.4961 46.0294 51.168C46.0294 49.8399 47.106 48.7632 48.4342 48.7632H60.458C61.7861 48.7632 62.8627 49.8399 62.8627 51.168ZM19.577 39.1442H24.3865C25.7147 39.1442 26.7913 40.2208 26.7913 41.5489C26.7913 42.877 25.7147 43.9537 24.3865 43.9537H19.577C18.2489 43.9537 17.1722 42.877 17.1722 41.5489C17.1722 40.2208 18.2489 39.1442 19.577 39.1442ZM19.577 48.7632H38.8151C40.1432 48.7632 41.2199 49.8399 41.2199 51.168C41.2199 52.4961 40.1432 53.5727 38.8151 53.5727H19.577C18.2489 53.5727 17.1722 52.4961 17.1722 51.168C17.1722 49.8399 18.2489 48.7632 19.577 48.7632ZM19.577 58.3823H29.1961C30.5242 58.3823 31.6008 59.4589 31.6008 60.787C31.6008 62.1151 30.5242 63.1918 29.1961 63.1918H19.577C18.2489 63.1918 17.1722 62.1151 17.1722 60.787C17.1722 59.4589 18.2489 58.3823 19.577 58.3823ZM66.6839 93.8092L29.1961 115.452C26.8958 116.78 23.9544 115.992 22.6263 113.692L15.412 101.187C14.0959 98.8874 14.882 95.9567 17.1722 94.6244L54.6601 72.9816C55.765 72.344 57.078 72.1716 58.3101 72.5021C59.5422 72.8327 60.5925 73.6393 61.2299 74.7443L68.4442 87.249C69.7657 89.5472 68.9784 92.4813 66.6839 93.8092ZM79.6961 63.1918H38.8151C37.487 63.1918 36.4104 62.1151 36.4104 60.787C36.4104 59.4589 37.487 58.3823 38.8151 58.3823H79.6961C81.0242 58.3823 82.1008 59.4589 82.1008 60.787C82.1008 62.1151 81.0242 63.1918 79.6961 63.1918Z" fill="#B1040E"/>
<path d="M98.9351 130.523H15.2109C16.2264 133.395 18.9364 135.32 21.9827 135.333H108.554C112.539 135.333 115.768 132.103 115.768 128.119V120.904H110.718C109.568 126.499 104.647 130.516 98.9351 130.523Z" fill="#B1040E"/>
<path d="M127.789 94.4531H89.313C87.9849 94.4531 86.9082 95.5298 86.9082 96.8579V101.667C86.9082 102.996 87.9849 104.072 89.313 104.072H127.789C129.117 104.072 130.194 102.996 130.194 101.667V96.8579C130.194 95.5298 129.117 94.4531 127.789 94.4531Z" fill="#B1040E"/>
</g>
<defs>
<clipPath id="clip0_27_2554">
<rect width="134.667" height="134.667" fill="white" transform="translate(0.335938 0.667969)"/>
</clipPath>
</defs>
</svg>
