<svg width="174" height="173" viewBox="0 0 174 173" fill="none" xmlns="http://www.w3.org/2000/svg">
<g opacity="0.1" clip-path="url(#clip0_27_2542)">
<path d="M25.1016 125.649L34.3873 141.62L82.642 113.977L73.3563 98.0059L25.1016 125.649ZM42.0139 130.145L39.3366 131.681C37.8553 132.529 35.9616 132.025 35.1069 130.555C34.2522 129.085 34.7601 127.206 36.2413 126.358L38.9187 124.822C40.3999 123.974 42.2936 124.478 43.1483 125.948C44.0031 127.418 43.4952 129.297 42.0139 130.145ZM71.4992 113.252L52.7389 124.002C51.2577 124.851 49.364 124.347 48.5093 122.877C47.6546 121.407 48.1625 119.528 49.6437 118.68L68.4039 107.93C69.8852 107.081 71.7789 107.585 72.6336 109.055C73.4883 110.525 72.9804 112.404 71.4992 113.252Z" fill="#001857"/>
<path d="M136.527 107.834H142.718V113.977H136.527V107.834Z" fill="#001857"/>
<path d="M40.5733 24.9062V4.67773L10.9023 34.1205H31.2876C36.4159 34.1205 40.5733 29.9951 40.5733 24.9062Z" fill="#001857"/>
<path d="M118.232 64.4368C116.994 71.9659 119.877 79.5813 125.806 84.4379C128.63 86.6824 130.293 90.0626 130.341 93.6522V101.69H148.912V93.6368C148.96 90.0553 150.62 86.6828 153.437 84.4441C158.294 80.4545 161.156 74.5617 161.275 68.3064C161.394 62.0511 158.758 56.0554 154.056 51.8869C153.052 50.9872 151.967 50.1801 150.816 49.4758L150.769 49.4513C147.415 47.4455 143.57 46.3916 139.654 46.4044C138.815 46.4049 137.975 46.451 137.141 46.5426C127.538 47.6908 119.843 54.9734 118.232 64.4368Z" fill="#001857"/>
<path d="M148.911 21.8347C148.895 17.9438 146.418 14.4825 142.721 13.1855V40.4568C144.832 40.6992 146.909 41.1783 148.911 41.885V21.8347Z" fill="#001857"/>
<path d="M121.055 138.547H158.201V147.761H121.055V138.547Z" fill="#001857"/>
<path d="M135.958 153.905H121.051C117.632 153.905 114.861 151.155 114.861 147.763V138.548C109.732 138.548 105.575 134.423 105.575 129.334V123.191C105.575 118.102 109.732 113.977 114.861 113.977H130.337V107.834C126.918 107.834 124.146 105.084 124.146 101.691V93.6379C124.088 91.8835 123.248 90.2453 121.853 89.1659C114.238 82.9357 110.528 73.1622 112.109 63.4949C114.178 51.3038 124.087 41.9189 136.456 40.4376H136.527V9.54827C136.527 4.45936 132.37 0.333984 127.242 0.333984H46.7654V24.9054C46.7552 33.3827 39.8323 40.2524 31.2893 40.2626H6.52734V150.834C6.52734 155.923 10.6847 160.048 15.8131 160.048H127.242C131.163 160.032 134.651 157.574 135.958 153.905ZM121.051 6.47684H127.242C128.951 6.47684 130.337 7.85197 130.337 9.54827C130.337 11.2446 128.951 12.6197 127.242 12.6197H121.051C119.342 12.6197 117.956 11.2446 117.956 9.54827C117.956 7.85197 119.342 6.47684 121.051 6.47684ZM90.0988 6.47684H108.67C110.38 6.47684 111.765 7.85197 111.765 9.54827C111.765 11.2446 110.38 12.6197 108.67 12.6197H90.0988C88.3893 12.6197 87.0036 11.2446 87.0036 9.54827C87.0036 7.85197 88.3893 6.47684 90.0988 6.47684ZM43.6702 49.4769H102.48C104.189 49.4769 105.575 50.852 105.575 52.5483C105.575 54.2446 104.189 55.6197 102.48 55.6197H43.6702C41.9608 55.6197 40.575 54.2446 40.575 52.5483C40.575 50.852 41.9608 49.4769 43.6702 49.4769ZM105.575 64.834C105.575 66.5303 104.189 67.9054 102.48 67.9054H90.0988C88.3893 67.9054 87.0036 66.5303 87.0036 64.834C87.0036 63.1377 88.3893 61.7626 90.0988 61.7626H102.48C104.189 61.7626 105.575 63.1377 105.575 64.834ZM80.8131 64.834C80.8131 66.5303 79.4273 67.9054 77.7178 67.9054H62.2416C60.5322 67.9054 59.1464 66.5303 59.1464 64.834C59.1464 63.1377 60.5322 61.7626 62.2416 61.7626H77.7178C79.4273 61.7626 80.8131 63.1377 80.8131 64.834ZM25.0988 49.4769H31.2893C32.9987 49.4769 34.3845 50.852 34.3845 52.5483C34.3845 54.2446 32.9987 55.6197 31.2893 55.6197H25.0988C23.3893 55.6197 22.0035 54.2446 22.0035 52.5483C22.0035 50.852 23.3893 49.4769 25.0988 49.4769ZM25.0988 61.7626H49.8607C51.5701 61.7626 52.9559 63.1377 52.9559 64.834C52.9559 66.5303 51.5701 67.9054 49.8607 67.9054H25.0988C23.3893 67.9054 22.0035 66.5303 22.0035 64.834C22.0035 63.1377 23.3893 61.7626 25.0988 61.7626ZM25.0988 74.0483H37.4797C39.1892 74.0483 40.575 75.4234 40.575 77.1197C40.575 78.816 39.1892 80.1912 37.4797 80.1912H25.0988C23.3893 80.1912 22.0035 78.816 22.0035 77.1197C22.0035 75.4234 23.3893 74.0483 25.0988 74.0483ZM85.7314 119.297L37.4797 146.939C34.5189 148.636 30.733 147.629 29.0235 144.691L19.7378 128.72C18.0439 125.783 19.0557 122.039 22.0035 120.338L70.2552 92.6949C71.6774 91.8806 73.3674 91.6604 74.9532 92.0826C76.5391 92.5048 77.891 93.5349 78.7114 94.9463L87.9971 110.918C89.6981 113.853 88.6847 117.601 85.7314 119.297ZM102.48 80.1912H49.8607C48.1512 80.1912 46.7654 78.816 46.7654 77.1197C46.7654 75.4234 48.1512 74.0483 49.8607 74.0483H102.48C104.189 74.0483 105.575 75.4234 105.575 77.1197C105.575 78.816 104.189 80.1912 102.48 80.1912Z" fill="#001857"/>
<path d="M127.244 166.19H19.4805C20.7874 169.858 24.2757 172.317 28.1967 172.333H139.625C144.754 172.333 148.911 168.207 148.911 163.119V153.904H142.411C140.93 161.05 134.596 166.181 127.244 166.19Z" fill="#001857"/>
<path d="M164.387 120.121H114.863C113.153 120.121 111.768 121.496 111.768 123.193V129.335C111.768 131.032 113.153 132.407 114.863 132.407H164.387C166.096 132.407 167.482 131.032 167.482 129.335V123.193C167.482 121.496 166.096 120.121 164.387 120.121Z" fill="#001857"/>
</g>
<defs>
<clipPath id="clip0_27_2542">
<rect width="173.333" height="172" fill="white" transform="translate(0.335938 0.333984)"/>
</clipPath>
</defs>
</svg>
