<svg width="36" height="36" viewBox="0 0 36 36" fill="none" xmlns="http://www.w3.org/2000/svg">
<path d="M30.2546 0.667969H5.74414C2.9443 0.667969 0.666016 2.94625 0.666016 5.74609V30.2565C0.666016 33.0564 2.9443 35.3346 5.74414 35.3346H30.2546C33.0544 35.3346 35.3327 33.0564 35.3327 30.2565V5.74609C35.3327 2.94625 33.0544 0.667969 30.2546 0.667969ZM12.9212 28.1576H8.85872V13.9388H12.9212V28.1576ZM12.9212 11.9076H8.85872V7.84505H12.9212V11.9076ZM27.14 28.1576H23.0775V20.0326C23.0775 18.9127 22.1661 18.0013 21.0462 18.0013C19.9264 18.0013 19.015 18.9127 19.015 20.0326V28.1576H14.9525V13.9388H19.015V14.7045C20.0793 14.3736 20.7706 13.9388 22.0618 13.9388C24.817 13.9417 27.14 16.4133 27.14 19.3343V28.1576Z" fill="white"/>
</svg>
