<svg width="23" height="23" viewBox="0 0 23 23" fill="none" xmlns="http://www.w3.org/2000/svg">
<path d="M19.2064 0.667969H4.12305C2.40007 0.667969 0.998047 2.06999 0.998047 3.79297V18.8763C0.998047 20.5993 2.40007 22.0013 4.12305 22.0013H19.2064C20.9294 22.0013 22.3314 20.5993 22.3314 18.8763V3.79297C22.3314 2.06999 20.9294 0.667969 19.2064 0.667969ZM8.53971 17.5846H6.03971V8.83464H8.53971V17.5846ZM8.53971 7.58464H6.03971V5.08464H8.53971V7.58464ZM17.2897 17.5846H14.7897V12.5846C14.7897 11.8955 14.2288 11.3346 13.5397 11.3346C12.8506 11.3346 12.2897 11.8955 12.2897 12.5846V17.5846H9.78971V8.83464H12.2897V9.30583C12.9447 9.10221 13.3701 8.83464 14.1647 8.83464C15.8602 8.83643 17.2897 10.3574 17.2897 12.1549V17.5846Z" fill="#001857"/>
</svg>
