<svg width="173" height="173" viewBox="0 0 173 173" fill="none" xmlns="http://www.w3.org/2000/svg">
<g opacity="0.1" clip-path="url(#clip0_27_2513)">
<path d="M76.9061 134.691C70.2008 140.887 60.9265 142.275 52.7008 138.314C49.727 136.882 47.2176 134.905 45.253 132.537L34.0525 157.31C33.5429 158.437 34.112 159.287 34.3801 159.599C34.6481 159.912 35.401 160.604 36.5922 160.272L44.7461 158.003C45.6753 157.744 46.6146 157.62 47.5407 157.62C51.448 157.62 55.1255 159.831 56.8963 163.496L60.5788 171.117C61.1167 172.23 62.1255 172.341 62.5454 172.333C62.9573 172.328 63.9705 172.194 64.4797 171.067L82.2955 131.66C80.338 132.224 78.4843 133.232 76.9061 134.691Z" fill="#001857"/>
<path d="M139.289 157.31L128.088 132.537C126.124 134.905 123.614 136.883 120.64 138.314C112.414 142.275 103.14 140.887 96.435 134.691C94.8568 133.232 93.0031 132.224 91.0449 131.66L108.861 171.067C109.37 172.194 110.383 172.328 110.795 172.333C111.215 172.341 112.224 172.23 112.762 171.117L116.444 163.496C118.215 159.831 121.892 157.62 125.8 157.62C126.726 157.62 127.665 157.744 128.594 158.003L136.748 160.272C137.939 160.604 138.693 159.912 138.96 159.599C139.229 159.286 139.798 158.437 139.289 157.31Z" fill="#001857"/>
<path d="M148.085 70.1388C138.783 63.7694 135.897 51.123 141.514 41.3483C144.891 35.4724 143.133 29.666 140.363 26.1914C137.592 22.7178 132.322 19.7129 125.843 21.6966C115.065 24.9978 103.376 19.3702 99.2362 8.88359C96.7475 2.58006 91.1122 0.333984 86.6687 0.333984C82.2253 0.333984 76.5899 2.58006 74.1013 8.88393C69.9612 19.3709 58.2739 24.9978 47.4947 21.6969C41.0148 19.7135 35.7456 22.7178 32.9745 26.1918C30.204 29.6664 28.4467 35.472 31.8232 41.3486C37.4408 51.123 34.5544 63.7697 25.2523 70.1391C19.6603 73.9685 18.7247 79.9619 19.713 84.2942C20.7013 88.6264 24.1454 93.6201 30.845 94.6437C41.9894 96.3463 50.0767 106.488 49.2574 117.732C48.7642 124.491 52.867 128.96 56.8704 130.888C60.8741 132.816 66.9257 133.238 71.9029 128.638C76.0424 124.813 81.3565 122.899 86.6684 122.899C91.9823 122.899 97.2934 124.812 101.434 128.638C106.411 133.238 112.463 132.816 116.467 130.888C120.47 128.96 124.573 124.491 124.08 117.732C123.26 106.488 131.348 96.3466 142.492 94.6437C149.192 93.6201 152.635 88.6261 153.624 84.2942C154.613 79.9613 153.677 73.9678 148.085 70.1388ZM86.6687 113.183C62.2881 113.183 42.453 93.348 42.453 68.9674C42.453 44.5867 62.2877 24.7513 86.6687 24.7513C111.05 24.7513 130.884 44.5864 130.884 68.967C130.884 93.3477 111.049 113.183 86.6687 113.183Z" fill="#001857"/>
<path d="M86.6691 32.9961C66.834 32.9961 50.6973 49.1332 50.6973 68.9679C50.6973 88.8027 66.8337 104.94 86.6691 104.94C106.505 104.94 122.641 88.8027 122.641 68.9679C122.641 49.1332 106.504 32.9961 86.6691 32.9961ZM105.104 65.4802L82.7161 81.832C82.0056 82.351 81.153 82.6255 80.285 82.6255C80.0612 82.6255 79.8365 82.6073 79.6127 82.5704C78.5213 82.39 77.5477 81.7782 76.9115 80.8726L70.2149 71.338C68.9064 69.4745 69.3562 66.9036 71.219 65.5951C73.0821 64.2867 75.6527 64.7361 76.9615 66.5993L81.2447 72.6979L100.241 58.823C102.08 57.4809 104.659 57.8813 106.001 59.7203C107.344 61.5585 106.942 64.1372 105.104 65.4802Z" fill="#001857"/>
</g>
<defs>
<clipPath id="clip0_27_2513">
<rect width="172" height="172" fill="white" transform="translate(0.669922 0.333984)"/>
</clipPath>
</defs>
</svg>
