<svg width="136" height="136" viewBox="0 0 136 136" fill="none" xmlns="http://www.w3.org/2000/svg">
<g clip-path="url(#clip0_27_2526)">
<path d="M60.3569 105.863C55.107 110.715 47.8458 111.801 41.4055 108.7C39.0772 107.579 37.1125 106.031 35.5743 104.176L26.8049 123.573C26.4059 124.455 26.8515 125.12 27.0614 125.365C27.2713 125.61 27.8607 126.151 28.7934 125.892L35.1774 124.115C35.9049 123.913 36.6403 123.815 37.3655 123.815C40.4247 123.815 43.304 125.547 44.6903 128.416L47.5736 134.383C47.9947 135.254 48.7845 135.342 49.1133 135.335C49.4358 135.331 50.229 135.226 50.6278 134.344L64.5766 103.49C63.0439 103.931 61.5926 104.721 60.3569 105.863Z" fill="#B1040E"/>
<path d="M109.204 123.573L100.434 104.176C98.8963 106.031 96.9315 107.579 94.6032 108.7C88.1627 111.801 80.9017 110.715 75.6518 105.863C74.4161 104.721 72.9648 103.931 71.4316 103.49L85.3804 134.344C85.7794 135.226 86.5727 135.331 86.8949 135.335C87.2237 135.342 88.0135 135.254 88.4346 134.383L91.3179 128.416C92.704 125.547 95.5835 123.815 98.6427 123.815C99.3679 123.815 100.104 123.913 100.831 124.115L107.215 125.892C108.148 126.152 108.737 125.61 108.947 125.365C109.157 125.12 109.603 124.455 109.204 123.573Z" fill="#B1040E"/>
<path d="M116.088 55.3213C108.805 50.3345 106.545 40.433 110.944 32.7799C113.587 28.1794 112.211 23.6334 110.042 20.9129C107.873 18.1933 103.746 15.8406 98.6736 17.3937C90.2348 19.9784 81.0836 15.5723 77.8421 7.36185C75.8936 2.42653 71.4815 0.667969 68.0025 0.667969C64.5235 0.667969 60.1113 2.42653 58.1629 7.36211C54.9214 15.5728 45.7709 19.9784 37.3313 17.394C32.2579 15.8411 28.1325 18.1933 25.9628 20.9132C23.7937 23.6336 22.4178 28.1792 25.0614 32.7802C29.4597 40.433 27.1998 50.3347 19.9167 55.3216C15.5385 58.3198 14.806 63.0123 15.5798 66.4042C16.3536 69.7962 19.0501 73.706 24.2955 74.5074C33.021 75.8404 39.3529 83.7805 38.7114 92.584C38.3253 97.8763 41.5376 101.375 44.672 102.885C47.8067 104.394 52.5447 104.725 56.4417 101.123C59.6826 98.128 63.8433 96.6298 68.0022 96.6298C72.1627 96.6298 76.321 98.1272 79.5625 101.123C83.4599 104.725 88.1983 104.394 91.3327 102.885C94.4671 101.375 97.6791 97.8765 97.2933 92.5843C96.6518 83.7807 102.984 75.8406 111.709 74.5074C116.955 73.706 119.651 69.7959 120.425 66.4042C121.199 63.0118 120.466 58.3192 116.088 55.3213ZM68.0025 89.0227C48.9137 89.0227 33.3839 73.4929 33.3839 54.4042C33.3839 35.3154 48.9135 19.7854 68.0025 19.7854C87.0915 19.7854 102.621 35.3152 102.621 54.4039C102.621 73.4927 87.0912 89.0227 68.0025 89.0227Z" fill="#B1040E"/>
<path d="M68.0019 26.2402C52.4721 26.2402 39.8379 38.8747 39.8379 54.4042C39.8379 69.9338 52.4718 82.5683 68.0019 82.5683C83.5319 82.5683 96.1659 69.9338 96.1659 54.4042C96.1659 38.8747 83.5317 26.2402 68.0019 26.2402ZM82.4352 51.6736L64.9069 64.4761C64.3506 64.8825 63.6831 65.0974 63.0034 65.0974C62.8283 65.0974 62.6523 65.0832 62.4771 65.0542C61.6226 64.913 60.8604 64.434 60.3622 63.7249L55.1191 56.2599C54.0947 54.8009 54.4469 52.788 55.9053 51.7635C57.364 50.7391 59.3767 51.091 60.4014 52.5497L63.7549 57.3246L78.6282 46.4613C80.0677 45.4105 82.0869 45.724 83.1379 47.1638C84.1892 48.6031 83.8744 50.622 82.4352 51.6736Z" fill="#B1040E"/>
</g>
<defs>
<clipPath id="clip0_27_2526">
<rect width="134.667" height="134.667" fill="white" transform="translate(0.669922 0.667969)"/>
</clipPath>
</defs>
</svg>
