<svg width="15" height="15" viewBox="0 0 15 15" fill="none" xmlns="http://www.w3.org/2000/svg">
<g clip-path="url(#clip0_27_2947)">
<path d="M11.9668 0.888672H8.5293C6.87096 0.888672 5.52148 2.23815 5.52148 3.89648C5.52148 5.40921 6.64397 6.6647 8.09961 6.87367V8.19336C8.09961 8.36707 8.20408 8.52402 8.36481 8.5903C8.52331 8.65645 8.70922 8.62099 8.83311 8.49715L10.426 6.9043H11.9668C13.6251 6.9043 15.0033 5.55482 15.0033 3.89648C15.0033 2.23815 13.6251 0.888672 11.9668 0.888672ZM8.5293 4.32611C8.29194 4.32611 8.09961 4.13373 8.09961 3.89643C8.09961 3.65913 8.29194 3.46674 8.5293 3.46674C8.7666 3.46674 8.95898 3.65913 8.95898 3.89643C8.95898 4.13373 8.7666 4.32611 8.5293 4.32611ZM10.248 4.32611C10.0107 4.32611 9.81836 4.13373 9.81836 3.89643C9.81836 3.65913 10.0107 3.46674 10.248 3.46674C10.4853 3.46674 10.6777 3.65913 10.6777 3.89643C10.6777 4.13373 10.4853 4.32611 10.248 4.32611ZM11.9668 4.32611C11.7294 4.32611 11.5371 4.13373 11.5371 3.89643C11.5371 3.65913 11.7294 3.46674 11.9668 3.46674C12.2041 3.46674 12.3965 3.65913 12.3965 3.89643C12.3965 4.13373 12.2041 4.32611 11.9668 4.32611Z" fill="#001857"/>
<path d="M9.98763 13.7793C10.6984 13.7793 11.2767 13.2011 11.2767 12.4902V10.7715C11.2767 10.5864 11.1584 10.4223 10.983 10.364L8.41088 9.50465C8.28498 9.46228 8.14736 9.48156 8.03659 9.55458L6.94306 10.2834C5.78491 9.73124 4.41069 8.35698 3.85845 7.19883L4.58732 6.10531C4.66074 5.99494 4.67921 5.85689 4.63725 5.73102L3.77787 3.15894C3.71958 2.98357 3.55549 2.86523 3.37044 2.86523H1.62305C0.912229 2.86523 0.333984 3.43743 0.333984 4.14825C0.333984 9.09888 5.037 13.7793 9.98763 13.7793Z" fill="#001857"/>
</g>
<defs>
<clipPath id="clip0_27_2947">
<rect width="14.6667" height="14.6667" fill="white" transform="translate(0.333984)"/>
</clipPath>
</defs>
</svg>
