<svg width="29" height="29" viewBox="0 0 29 29" fill="none" xmlns="http://www.w3.org/2000/svg">
<path d="M27.3878 22.7328L22.762 18.1243C23.6031 16.4485 24.1638 14.4934 24.1638 12.5383C24.1638 5.9747 18.8371 0.667969 12.2489 0.667969C5.66064 0.667969 0.333984 5.9747 0.333984 12.5383C0.333984 19.1019 5.66064 24.4086 12.2489 24.4086C14.2113 24.4086 16.1738 23.85 17.8559 23.0121L22.4817 27.6206C23.8834 29.0171 25.986 29.0171 27.3878 27.6206C28.6494 26.2241 28.6494 24.1293 27.3878 22.7328ZM12.2489 21.6156C7.20257 21.6156 3.13749 17.5657 3.13749 12.5383C3.13749 7.51086 7.20257 3.46099 12.2489 3.46099C17.2952 3.46099 21.3603 7.51086 21.3603 12.5383C21.3603 17.5657 17.2952 21.6156 12.2489 21.6156Z" fill="white"/>
</svg>
