<svg width="17" height="16" viewBox="0 0 17 16" fill="none" xmlns="http://www.w3.org/2000/svg">
<g clip-path="url(#clip0_27_2281)">
<path d="M6.16602 11.7422V14.8342C6.16602 15.0502 6.30468 15.2415 6.51001 15.3095C6.56135 15.3262 6.61401 15.3342 6.66601 15.3342C6.82201 15.3342 6.97268 15.2608 7.06868 15.1302L8.87734 12.6689L6.16602 11.7422Z" fill="white"/>
<path d="M16.124 0.0927258C15.9707 -0.0159409 15.7693 -0.0306076 15.6027 0.0567257L0.602681 7.89006C0.425347 7.98273 0.320681 8.17206 0.335347 8.37139C0.350681 8.57139 0.483347 8.74206 0.672014 8.80673L4.84201 10.2321L13.7227 2.63873L6.85068 10.9181L13.8393 13.3067C13.8913 13.3241 13.946 13.3334 14.0007 13.3334C14.0913 13.3334 14.1813 13.3087 14.2607 13.2607C14.3873 13.1834 14.4733 13.0534 14.4953 12.9074L16.3287 0.574059C16.356 0.387392 16.2773 0.202059 16.124 0.0927258Z" fill="white"/>
</g>
<defs>
<clipPath id="clip0_27_2281">
<rect width="16" height="16" fill="white" transform="translate(0.333984)"/>
</clipPath>
</defs>
</svg>
