<svg width="102" height="102" viewBox="0 0 102 102" fill="none" xmlns="http://www.w3.org/2000/svg">
<g clip-path="url(#clip0_27_2719)">
<path d="M67.8882 42.1107H92.7611L92.7771 36.7773H72.4322C69.7148 37.015 67.6913 39.39 67.8882 42.1107Z" fill="#B1040E"/>
<path d="M64.3381 6.07066C64.417 3.47904 62.3854 1.31154 59.7941 1.22266H39.4492V33.2227H59.7941C61.4353 33.2283 63.0301 33.7674 64.3381 34.7587V6.07066ZM59.0048 27.8893H44.7825C43.8007 27.8893 43.0048 27.0934 43.0048 26.1115C43.0048 25.1297 43.8007 24.3338 44.7825 24.3338H59.0048C59.9866 24.3338 60.7825 25.1297 60.7825 26.1115C60.7825 27.0934 59.9866 27.8893 59.0048 27.8893ZM59.0048 19.0004H44.7825C43.8007 19.0004 43.0048 18.2045 43.0048 17.2227C43.0048 16.2408 43.8007 15.4449 44.7825 15.4449H59.0048C59.9866 15.4449 60.7825 16.2408 60.7825 17.2227C60.7825 18.2045 59.9866 19.0004 59.0048 19.0004ZM59.0048 10.1115H44.7825C43.8007 10.1115 43.0048 9.31561 43.0048 8.33377C43.0048 7.35193 43.8007 6.55599 44.7825 6.55599H59.0048C59.9866 6.55599 60.7825 7.35193 60.7825 8.33377C60.7825 9.31561 59.9866 10.1115 59.0048 10.1115Z" fill="#B1040E"/>
<path d="M39.4492 36.7773V42.1107H64.3381C64.535 39.39 62.5115 37.015 59.7941 36.7773H39.4492Z" fill="#B1040E"/>
<path d="M92.7778 1.22266H72.4329C69.8416 1.31154 67.8101 3.47904 67.8889 6.07066V34.7587C69.1969 33.7674 70.7918 33.2283 72.4329 33.2227H92.7778V1.22266ZM87.4445 27.8893H73.2223C72.2404 27.8893 71.4445 27.0934 71.4445 26.1115C71.4445 25.1297 72.2404 24.3338 73.2223 24.3338H87.4445C88.4263 24.3338 89.2223 25.1297 89.2223 26.1115C89.2223 27.0934 88.4263 27.8893 87.4445 27.8893ZM87.4445 19.0004H73.2223C72.2404 19.0004 71.4445 18.2045 71.4445 17.2227C71.4445 16.2408 72.2404 15.4449 73.2223 15.4449H87.4445C88.4263 15.4449 89.2223 16.2408 89.2223 17.2227C89.2223 18.2045 88.4263 19.0004 87.4445 19.0004ZM87.4445 10.1115H73.2223C72.2404 10.1115 71.4445 9.31561 71.4445 8.33377C71.4445 7.35193 72.2404 6.55599 73.2223 6.55599H87.4445C88.4263 6.55599 89.2223 7.35193 89.2223 8.33377C89.2223 9.31561 88.4263 10.1115 87.4445 10.1115Z" fill="#B1040E"/>
<path d="M1.40065 61.1951C1.86468 61.5188 2.35464 61.8036 2.86554 62.0467C4.38198 62.8218 6.46021 63.8849 6.88687 66.0538C7.14142 67.3973 6.97568 68.7866 6.41221 70.0325C6.10287 70.6902 5.78287 71.2591 5.50376 71.7498C5.41665 71.9027 5.32598 72.0733 5.23532 72.228C5.97309 72.8218 6.97932 73.5756 7.40598 73.8885C7.79298 74.1752 8.04705 74.6068 8.11005 75.0843C8.17305 75.5618 8.03959 76.0445 7.74021 76.4218C7.47641 76.7649 7.24659 77.1329 7.05398 77.5205C7.17665 77.5916 7.29932 77.6627 7.42376 77.732C8.99628 78.4083 10.1968 79.7354 10.7126 81.3676C10.9739 82.6214 10.9213 83.9203 10.5598 85.1489C10.478 85.5205 10.3944 85.892 10.3464 86.2636C10.2427 87.3393 10.3856 88.4246 10.7642 89.4369C11.1577 91.075 12.7675 92.1161 14.4229 91.8031C19.6038 90.5576 24.7086 89.0143 29.7118 87.1809H29.7224C31.5784 86.5516 33.2584 85.9631 34.5811 85.5009C35.8095 85.0725 36.7358 84.7489 37.2175 84.5942C44.6095 82.2565 46.1064 79.588 46.0655 77.7587C46.0437 76.7781 46.8201 75.9651 47.8006 75.9418C48.2755 75.9174 48.7395 76.0895 49.0836 76.4177C49.4277 76.746 49.6214 77.2014 49.6193 77.6769C49.7224 82.1071 45.9144 85.5756 38.2966 87.988C37.838 88.1356 36.942 88.4485 35.7526 88.8627L34.1526 89.4245C37.0831 92.6758 39.2207 96.5616 40.398 100.777L80.7215 100.665L80.6024 100.488C80.0903 99.75 79.6299 98.9778 79.2246 98.1765C78.3405 96.3798 77.6027 94.5148 77.0184 92.5996C75.9398 88.9605 75.1913 85.2317 74.782 81.4582C74.0818 75.5107 74.9815 69.4841 77.3882 64.0005C78.8076 61.033 80.5631 58.2384 82.6202 55.6716C83.3189 54.7293 84.0175 53.7605 84.6949 52.7827H74.8762L75.0006 54.6618C75.0036 56.5608 73.4686 58.1038 71.5695 58.1107H60.6718C58.7727 58.1038 57.2377 56.5608 57.2406 54.6618V52.6529L32.2095 52.7773C30.3105 52.7705 28.7755 51.2275 28.7784 49.3285V6.44846C28.7816 5.86217 28.9359 5.2866 29.2264 4.77734C24.8915 5.89299 20.923 8.12115 17.7135 11.2413C14.9065 14.2509 12.7368 17.7969 11.3349 21.6662C10.7449 23.3861 10.261 25.1405 9.88598 26.9196L9.70821 27.6769C9.28051 29.2932 8.69765 30.8643 7.96776 32.3685C7.63354 33.1151 7.29754 33.8618 7.00776 34.6227C6.83977 35.0082 6.74627 35.422 6.73221 35.8422C6.81043 36.4182 7.48954 37.0405 8.20776 37.7C9.67609 38.7357 10.6235 40.3568 10.8051 42.1445C10.7694 42.9879 10.5316 43.8103 10.1118 44.5427C7.8857 49.228 5.15805 53.658 1.97665 57.7551C0.621984 59.4102 0.333984 60.0662 0.333984 60.3311C0.662653 60.6508 1.01967 60.94 1.40065 61.1951ZM13.1606 28.5071L13.3384 27.7249C13.6852 26.0956 14.1275 24.4881 14.6629 22.9107C15.8964 19.4848 17.8165 16.3469 20.3055 13.6893C20.9451 13.0097 21.6495 12.394 22.4086 11.8511C23.2039 11.3448 24.2561 11.5473 24.8066 12.3126C25.3572 13.078 25.2145 14.14 24.4815 14.7329C23.9081 15.1425 23.3764 15.6076 22.894 16.1213C20.7345 18.4264 19.0696 21.1489 18.0015 24.1213C17.5184 25.5615 17.1183 27.0282 16.8033 28.5142L16.6255 29.2876C16.4896 29.9121 16.0288 30.4156 15.4187 30.6063C14.8087 30.7969 14.1432 30.6454 13.6758 30.2094C13.2084 29.7734 13.011 29.1201 13.1589 28.4982L13.1606 28.5071ZM12.7784 33.2218C13.7603 33.2218 14.5562 34.0177 14.5562 34.9996C14.5562 35.9814 13.7603 36.7773 12.7784 36.7773C11.7966 36.7773 11.0006 35.9814 11.0006 34.9996C11.0006 34.0177 11.7966 33.2218 12.7784 33.2218Z" fill="#B1040E"/>
<path d="M96.3334 6.52033V42.1115C96.3843 44.0192 94.8828 45.6089 92.9752 45.667H67.889C67.889 45.6955 67.8748 45.7186 67.873 45.747C67.8712 45.7755 67.889 45.8003 67.889 45.8288V49.1426C67.889 50.1244 67.0931 50.9203 66.1112 50.9203C65.1294 50.9203 64.3334 50.1244 64.3334 49.1426V45.8288C64.3334 45.8003 64.3477 45.7755 64.3494 45.747C64.3512 45.7186 64.3334 45.6955 64.3334 45.667H39.2472C37.3396 45.6089 35.8382 44.0192 35.889 42.1115V6.55589H32.209L32.3334 49.3292L57.3645 49.2226C59.2587 49.2245 60.7937 50.7595 60.7957 52.6537V54.6626L71.569 54.5559L71.4445 52.6537C71.4407 51.7425 71.801 50.8676 72.4453 50.2233C73.0896 49.579 73.9645 49.2188 74.8757 49.2226H100.013L99.889 6.44922L96.3334 6.52033Z" fill="#B1040E"/>
</g>
<defs>
<clipPath id="clip0_27_2719">
<rect width="101.333" height="101.333" fill="white" transform="translate(0.333984 0.333984)"/>
</clipPath>
</defs>
</svg>
