<svg width="102" height="103" viewBox="0 0 102 103" fill="none" xmlns="http://www.w3.org/2000/svg">
<path d="M96.2667 5.13333H81.0667V0H20.2667V5.13333H5.06667C2.02667 5.13333 0 7.18667 0 10.2667V22.5867C0 34.3933 8.61333 44.1467 20.2667 45.6867V46.2C20.2667 61.0867 30.4 73.4067 44.08 76.4867L40.5333 87.2667H28.88C26.8533 87.2667 24.8267 88.8067 24.32 90.86L20.2667 102.667H81.0667L77.0133 90.86C76.5067 88.8067 74.48 87.2667 72.4533 87.2667H60.8L57.2533 76.4867C70.9333 73.4067 81.0667 61.0867 81.0667 46.2V45.6867C92.72 44.1467 101.333 34.3933 101.333 22.5867V10.2667C101.333 7.18667 99.3067 5.13333 96.2667 5.13333ZM20.2667 35.42C14.6933 33.88 10.1333 28.7467 10.1333 22.5867V15.4H20.2667V35.42ZM60.8 51.3333L50.6667 45.6867L40.5333 51.3333L43.0667 41.0667L35.4667 30.8H46.1067L50.6667 20.5333L55.2267 30.8H65.8667L58.2667 41.0667L60.8 51.3333ZM91.2 22.5867C91.2 28.7467 86.64 34.3933 81.0667 35.42V15.4H91.2V22.5867Z" fill="#B1040E"/>
</svg>
