<svg width="71" height="62" viewBox="0 0 71 62" fill="none" xmlns="http://www.w3.org/2000/svg">
<path d="M29.422 11.278C23.47 12.238 19.342 14.35 17.038 17.614C14.926 20.686 13.87 26.062 13.87 33.742H28.558V61.102H0.333984V38.062C0.333984 25.582 2.63798 16.174 7.24599 9.83798C11.854 3.50198 19.246 0.333984 29.422 0.333984V11.278ZM70.894 11.278C64.942 12.238 60.814 14.35 58.51 17.614C56.398 20.686 55.342 26.062 55.342 33.742H70.03V61.102H41.806V38.062C41.806 25.582 44.11 16.174 48.718 9.83798C53.326 3.50198 60.718 0.333984 70.894 0.333984V11.278Z" fill="#B1040E"/>
</svg>
